<svg xmlns="http://www.w3.org/2000/svg" version="1.1" xmlns:xlink="http://www.w3.org/1999/xlink" xmlns:svgjs="http://svgjs.dev/svgjs" width="1500" height="1500" viewBox="0 0 1500 1500"><rect width="1500" height="1500" fill="#ffffff"></rect><g transform="matrix(0.6666666666666666,0,0,0.6666666666666666,249.39393939393938,438.5856950067477)"><svg viewBox="0 0 396 247" data-background-color="#ffffff" preserveAspectRatio="xMidYMid meet" height="935" width="1500" xmlns="http://www.w3.org/2000/svg" xmlns:xlink="http://www.w3.org/1999/xlink"><g id="tight-bounds" transform="matrix(1,0,0,1,0.2400000000000091,-0.09999999999999432)"><svg viewBox="0 0 395.52 247.2" height="247.2" width="395.52"><g><svg></svg></g><g><svg viewBox="0 0 395.52 247.2" height="247.2" width="395.52"><g transform="matrix(1,0,0,1,75.54432,80.31035876513442)"><svg viewBox="0 0 244.43135999999998 86.57928246973115" height="86.57928246973115" width="244.43135999999998"><g><svg viewBox="0 0 244.43135999999998 86.57928246973115" height="86.57928246973115" width="244.43135999999998"><g><svg viewBox="0 0 244.43135999999998 86.57928246973115" height="86.57928246973115" width="244.43135999999998"><g><svg viewBox="0 0 244.43135999999998 86.57928246973115" height="86.57928246973115" width="244.43135999999998"><g id="textblocktransform"><svg viewBox="0 0 244.43135999999998 86.57928246973115" height="86.57928246973115" width="244.43135999999998" id="textblock"><g><svg viewBox="0 0 244.43135999999998 52.20753570963239" height="52.20753570963239" width="244.43135999999998"><g transform="matrix(1,0,0,1,0,0)"><svg width="244.43135999999998" viewBox="0.48 -33.8 161.16 34.43" height="52.20753570963239" data-palette-color="#de6500"><path d="M11.5-33.8L11.5-33.8Q13.38-33.8 14.86-33.46 16.35-33.13 17.6-32.63L17.6-32.63 18-29.45Q16.78-29.9 15.54-30.16 14.3-30.43 12.75-30.43L12.75-30.43Q10.88-30.43 9.74-29.94 8.6-29.45 8.11-28.56 7.63-27.68 7.63-26.43L7.63-26.43 7.63-26.3Q7.63-25.43 7.85-24.64 8.08-23.85 8.35-23.2L8.35-23.2 5.63-23.1 5.63-23.6Q4.85-24.2 4.26-25.28 3.68-26.35 3.68-27.78L3.68-27.78 3.68-27.9Q3.68-30.58 5.58-32.19 7.48-33.8 11.5-33.8ZM8.53 0L4.5 0 4.5-22.23 8.53-22.23 8.53 0ZM17.53-20.25L0.48-20.25 0.48-23.48 6.05-23.45 7.7-23.48 17.9-23.48 17.53-20.25ZM21.67-24.4L25.7-24.4 25.7-9.22Q25.7-7.3 26.23-5.86 26.77-4.42 28-3.64 29.22-2.85 31.3-2.85L31.3-2.85Q33.25-2.85 34.65-3.56 36.05-4.28 36.94-5.53 37.82-6.78 38.15-8.35L38.15-8.35 38.87-5.48 38-5.48Q37.62-3.83 36.62-2.46 35.62-1.1 33.94-0.29 32.25 0.53 29.77 0.53L29.77 0.53Q26.9 0.53 25.11-0.56 23.32-1.65 22.5-3.74 21.67-5.83 21.67-8.78L21.67-8.78 21.67-24.4ZM37.97-24.4L42.02-24.4 42.02 0 37.97 0 38.15-5.85 37.97-6.1 37.97-24.4ZM56.67 0.53L56.67 0.53Q52.27 0.53 49.97-2.2 47.67-4.93 47.67-10.15L47.67-10.15 47.67-14.18Q47.67-19.43 50-22.19 52.32-24.95 56.85-24.95L56.85-24.95Q59.1-24.95 60.75-24.19 62.4-23.43 63.42-22.05 64.45-20.68 64.8-18.8L64.8-18.8 66.12-18.8 64.92-15.08Q64.85-17.23 63.96-18.69 63.07-20.15 61.56-20.9 60.05-21.65 58.1-21.65L58.1-21.65Q55-21.65 53.36-19.85 51.72-18.05 51.72-14.55L51.72-14.55 51.72-9.9Q51.72-6.45 53.36-4.65 55-2.85 58.1-2.85L58.1-2.85Q59.95-2.85 61.37-3.56 62.8-4.28 63.73-5.54 64.67-6.8 65.02-8.4L65.02-8.4 66.02-5.5 64.82-5.5Q64.47-3.85 63.48-2.48 62.5-1.1 60.83-0.29 59.17 0.53 56.67 0.53ZM68.87 0L64.82 0 65-5.9 64.92-7.2 64.92-17.4 64.95-18.25 64.85-25.18 64.85-33.13 68.87-33.13 68.87 0ZM98.84 0L94.57 0 93.67-6.55Q93.42-8.4 92.82-9.76 92.22-11.13 90.98-11.9 89.74-12.68 87.47-12.68L87.47-12.68 78.79-12.7 78.79-15.98 88.07-16Q91.34-16 92.74-17.61 94.14-19.23 94.14-22L94.14-22 94.14-22.75Q94.14-25.5 92.72-27.01 91.29-28.53 87.97-28.53L87.97-28.53 78.67-28.53 78.67-31.95 88.52-31.95Q93.67-31.95 96.01-29.69 98.34-27.43 98.34-23.45L98.34-23.45 98.34-22.6Q98.34-19.48 96.87-17.49 95.39-15.5 91.97-15.08L91.97-15.08 91.97-14.58 90.19-15.2Q92.97-15 94.48-13.99 95.99-12.98 96.69-11.23 97.39-9.47 97.77-7.03L97.77-7.03 98.84 0ZM80.04 0L75.94 0 75.94-31.95 80.02-31.95 80.02-14.88 80.04-13.3 80.04 0ZM113.32 0.63L113.32 0.63Q108.07 0.63 105.35-2.21 102.64-5.05 102.64-10.38L102.64-10.38 102.64-14.1Q102.64-19.4 105.37-22.23 108.09-25.05 113.32-25.05L113.32-25.05Q118.57-25.05 121.28-22.23 123.99-19.4 123.99-14.1L123.99-14.1 123.99-10.38Q123.99-5.05 121.28-2.21 118.57 0.63 113.32 0.63ZM113.32-2.68L113.32-2.68Q116.57-2.68 118.25-4.6 119.94-6.53 119.94-10.15L119.94-10.15 119.94-14.33Q119.94-17.93 118.25-19.84 116.57-21.75 113.32-21.75L113.32-21.75Q110.09-21.75 108.39-19.84 106.69-17.93 106.69-14.33L106.69-14.33 106.69-10.15Q106.69-6.53 108.39-4.6 110.09-2.68 113.32-2.68ZM139.24 0L133.01 0 127.01-24.4 131.19-24.4 135.99-2.95 136.46-2.95 141.46-23.75 147.19-23.75 152.19-2.95 152.64-2.95 157.49-24.4 161.64-24.4 155.64 0 149.44 0 145.31-17.35 144.51-20.83 144.14-20.83 143.36-17.35 139.24 0Z" opacity="1" transform="matrix(1,0,0,1,0,0)" fill="#000000" class="wordmark-text-0" data-fill-palette-color="primary" id="text-0"></path></svg></g></svg></g><g transform="matrix(1,0,0,1,0,64.53248190981957)"><svg viewBox="0 0 244.43135999999998 22.046800559911592" height="22.046800559911592" width="244.43135999999998"><g transform="matrix(1,0,0,1,0,0)"><svg width="244.43135999999998" viewBox="3.25 -33.48 475.07 42.86" height="22.046800559911592" data-palette-color="#092449"><path d="M7.7-13.45L7.28 0 3.25 0 4.48-31.95 10.9-31.95 18.48-8.85 18.82-8.85 26.4-31.95 32.85-31.95 34.08 0 30.05 0 29.6-13.48 29.18-27.63 28.73-27.63 20.83-3.68 16.5-3.68 8.6-27.63 8.15-27.63 7.7-13.45ZM44.75-24.4L44.75 0 40.7 0 40.7-24.4 44.75-24.4ZM42.73-28.4L42.73-28.4Q41.48-28.4 40.86-29.06 40.25-29.73 40.25-30.88L40.25-30.88 40.25-31Q40.25-32.18 40.86-32.83 41.48-33.48 42.73-33.48L42.73-33.48Q43.98-33.48 44.6-32.83 45.23-32.18 45.23-31L45.23-31 45.23-30.88Q45.23-29.7 44.6-29.05 43.98-28.4 42.73-28.4ZM71.83-15.63L71.83 0 67.78 0 67.78-15.18Q67.78-17.15 67.24-18.57 66.7-20 65.49-20.79 64.28-21.58 62.18-21.58L62.18-21.58Q60.25-21.58 58.84-20.85 57.43-20.13 56.55-18.89 55.68-17.65 55.33-16.07L55.33-16.07 54.6-18.95 55.48-18.95Q55.88-20.6 56.88-21.96 57.88-23.33 59.56-24.14 61.25-24.95 63.7-24.95L63.7-24.95Q66.6-24.95 68.39-23.85 70.18-22.75 71-20.69 71.83-18.63 71.83-15.63L71.83-15.63ZM55.5-18.32L55.5 0 51.45 0 51.45-24.4 55.5-24.4 55.33-18.55 55.5-18.32ZM82.23-24.4L82.23 0 78.18 0 78.18-24.4 82.23-24.4ZM80.2-28.4L80.2-28.4Q78.95-28.4 78.34-29.06 77.73-29.73 77.73-30.88L77.73-30.88 77.73-31Q77.73-32.18 78.34-32.83 78.95-33.48 80.2-33.48L80.2-33.48Q81.45-33.48 82.08-32.83 82.7-32.18 82.7-31L82.7-31 82.7-30.88Q82.7-29.7 82.08-29.05 81.45-28.4 80.2-28.4ZM123.45-15.73L123.45 0 119.4 0 119.4-15.28Q119.4-17.2 118.91-18.61 118.43-20.03 117.31-20.8 116.2-21.58 114.33-21.58L114.33-21.58Q112.55-21.58 111.25-20.85 109.95-20.13 109.15-18.91 108.35-17.7 108.03-16.15L108.03-16.15 107.4-19.03 107.9-19.03Q108.3-20.6 109.25-21.95 110.2-23.3 111.83-24.13 113.45-24.95 115.85-24.95L115.85-24.95Q118.58-24.95 120.24-23.88 121.9-22.8 122.68-20.74 123.45-18.68 123.45-15.73L123.45-15.73ZM92.98-18.3L92.98 0 88.93 0 88.93-24.4 92.98-24.4 92.8-18.55 92.98-18.3ZM108.2-15.85L108.2 0 104.18 0 104.18-15.28Q104.18-17.2 103.69-18.61 103.2-20.03 102.1-20.8 101-21.58 99.13-21.58L99.13-21.58Q97.33-21.58 96.03-20.85 94.73-20.13 93.93-18.89 93.13-17.65 92.8-16.07L92.8-16.07 92.05-18.95 92.95-18.95Q93.33-20.6 94.25-21.96 95.18-23.33 96.76-24.14 98.35-24.95 100.63-24.95L100.63-24.95Q104-24.95 105.76-23.2 107.53-21.45 107.98-18.1L107.98-18.1Q108.1-17.6 108.15-17.01 108.2-16.43 108.2-15.85L108.2-15.85ZM133.85-24.4L133.85 0 129.8 0 129.8-24.4 133.85-24.4ZM131.83-28.4L131.83-28.4Q130.58-28.4 129.96-29.06 129.35-29.73 129.35-30.88L129.35-30.88 129.35-31Q129.35-32.18 129.96-32.83 130.58-33.48 131.83-33.48L131.83-33.48Q133.08-33.48 133.7-32.83 134.33-32.18 134.33-31L134.33-31 134.33-30.88Q134.33-29.7 133.7-29.05 133.08-28.4 131.83-28.4ZM157.7-21.38L144.13-3.35 157.8-3.35 157.8 0 139.28 0 139.28-3.05 152.85-21.08 139.32-21.08 139.32-24.4 157.7-24.4 157.7-21.38ZM167.25-24.4L167.25 0 163.2 0 163.2-24.4 167.25-24.4ZM165.22-28.4L165.22-28.4Q163.97-28.4 163.36-29.06 162.75-29.73 162.75-30.88L162.75-30.88 162.75-31Q162.75-32.18 163.36-32.83 163.97-33.48 165.22-33.48L165.22-33.48Q166.47-33.48 167.1-32.83 167.72-32.18 167.72-31L167.72-31 167.72-30.88Q167.72-29.7 167.1-29.05 166.47-28.4 165.22-28.4ZM194.32-15.63L194.32 0 190.27 0 190.27-15.18Q190.27-17.15 189.74-18.57 189.2-20 187.99-20.79 186.77-21.58 184.67-21.58L184.67-21.58Q182.75-21.58 181.34-20.85 179.92-20.13 179.05-18.89 178.17-17.65 177.82-16.07L177.82-16.07 177.1-18.95 177.97-18.95Q178.37-20.6 179.37-21.96 180.37-23.33 182.06-24.14 183.75-24.95 186.2-24.95L186.2-24.95Q189.1-24.95 190.89-23.85 192.67-22.75 193.5-20.69 194.32-18.63 194.32-15.63L194.32-15.63ZM178-18.32L178 0 173.95 0 173.95-24.4 178-24.4 177.82-18.55 178-18.32ZM210.1-7.3L210.1-7.3Q205.12-7.3 202.46-9.47 199.8-11.65 199.8-15.7L199.8-15.7 199.8-16.32Q199.8-18.85 200.84-20.73 201.87-22.6 204.15-23.66 206.42-24.73 210.1-24.83L210.1-24.83 222.55-25.23 222.55-22.03 215.2-22.28 215.17-22.1Q216.9-21.75 218-20.9 219.1-20.05 219.64-18.78 220.17-17.5 220.17-15.8L220.17-15.8 220.17-15.25Q220.17-11.38 217.63-9.34 215.07-7.3 210.1-7.3ZM209.92 6.15L209.92 6.15 210.5 6.15Q212.75 6.15 214.36 5.81 215.97 5.48 216.85 4.75 217.72 4.03 217.72 2.83L217.72 2.83 217.72 2.73Q217.72 1.33 216.71 0.59 215.7-0.15 213.25-0.38L213.25-0.38 206.35-1 207.5-1.05Q206.1-0.85 205.04-0.4 203.97 0.05 203.37 0.79 202.77 1.53 202.77 2.63L202.77 2.63 202.77 2.68Q202.77 3.95 203.65 4.73 204.52 5.5 206.12 5.83 207.72 6.15 209.92 6.15ZM210.42 9.38L210.42 9.38 209.7 9.38Q206.4 9.38 204.01 8.81 201.62 8.25 200.31 6.99 199 5.73 199 3.6L199 3.6 199 3.5Q199 2 199.71 1 200.42 0 201.64-0.58 202.85-1.15 204.35-1.35L204.35-1.35 204.32-1.5Q202.27-1.85 201.3-2.71 200.32-3.58 200.32-4.95L200.32-4.95 200.32-4.98Q200.32-5.93 200.76-6.6 201.2-7.28 202.09-7.68 202.97-8.08 204.35-8.18L204.35-8.18 204.35-8.68 209-7.5 207.1-7.55Q205.4-7.53 204.75-7.14 204.1-6.75 204.1-5.98L204.1-5.98 204.1-5.95Q204.1-5.13 205.02-4.7 205.95-4.28 208.17-4.03L208.17-4.03 214.1-3.43Q217.97-3.03 219.75-1.56 221.52-0.1 221.52 2.75L221.52 2.75 221.52 2.88Q221.52 5.15 220.17 6.6 218.82 8.05 216.35 8.71 213.87 9.38 210.42 9.38ZM210.05-10.3L210.05-10.3Q212.15-10.3 213.54-10.91 214.92-11.53 215.64-12.76 216.35-14 216.35-15.8L216.35-15.8 216.35-16.4Q216.35-18.15 215.66-19.38 214.97-20.6 213.6-21.24 212.22-21.88 210.15-21.88L210.15-21.88 210-21.88Q207.75-21.88 206.34-21.19 204.92-20.5 204.29-19.26 203.65-18.03 203.65-16.38L203.65-16.38 203.65-15.8Q203.65-14 204.36-12.78 205.07-11.55 206.5-10.93 207.92-10.3 210.05-10.3ZM241.47-31.95L241.47 0 237.32 0 237.32-31.95 241.47-31.95ZM256.15-16.85L256.15-13.38 239.67-13.38 239.67-16.85 256.15-16.85ZM256.52-31.95L256.52-28.48 238.52-28.48 238.52-31.95 256.52-31.95ZM271.57 0.63L271.57 0.63Q266.32 0.63 263.61-2.21 260.9-5.05 260.9-10.38L260.9-10.38 260.9-14.1Q260.9-19.4 263.63-22.23 266.35-25.05 271.57-25.05L271.57-25.05Q276.82-25.05 279.54-22.23 282.25-19.4 282.25-14.1L282.25-14.1 282.25-10.38Q282.25-5.05 279.54-2.21 276.82 0.63 271.57 0.63ZM271.57-2.68L271.57-2.68Q274.82-2.68 276.51-4.6 278.2-6.53 278.2-10.15L278.2-10.15 278.2-14.33Q278.2-17.93 276.51-19.84 274.82-21.75 271.57-21.75L271.57-21.75Q268.35-21.75 266.65-19.84 264.95-17.93 264.95-14.33L264.95-14.33 264.95-10.15Q264.95-6.53 266.65-4.6 268.35-2.68 271.57-2.68ZM297.57 0.63L297.57 0.63Q292.32 0.63 289.61-2.21 286.9-5.05 286.9-10.38L286.9-10.38 286.9-14.1Q286.9-19.4 289.63-22.23 292.35-25.05 297.57-25.05L297.57-25.05Q302.82-25.05 305.54-22.23 308.25-19.4 308.25-14.1L308.25-14.1 308.25-10.38Q308.25-5.05 305.54-2.21 302.82 0.63 297.57 0.63ZM297.57-2.68L297.57-2.68Q300.82-2.68 302.51-4.6 304.2-6.53 304.2-10.15L304.2-10.15 304.2-14.33Q304.2-17.93 302.51-19.84 300.82-21.75 297.57-21.75L297.57-21.75Q294.35-21.75 292.65-19.84 290.95-17.93 290.95-14.33L290.95-14.33 290.95-10.15Q290.95-6.53 292.65-4.6 294.35-2.68 297.57-2.68ZM321.93 0.53L321.93 0.53Q317.52 0.53 315.22-2.2 312.93-4.93 312.93-10.15L312.93-10.15 312.93-14.18Q312.93-19.43 315.25-22.19 317.57-24.95 322.1-24.95L322.1-24.95Q324.35-24.95 326-24.19 327.65-23.43 328.68-22.05 329.7-20.68 330.05-18.8L330.05-18.8 331.38-18.8 330.18-15.08Q330.1-17.23 329.21-18.69 328.32-20.15 326.81-20.9 325.3-21.65 323.35-21.65L323.35-21.65Q320.25-21.65 318.61-19.85 316.97-18.05 316.97-14.55L316.97-14.55 316.97-9.9Q316.97-6.45 318.61-4.65 320.25-2.85 323.35-2.85L323.35-2.85Q325.2-2.85 326.63-3.56 328.05-4.28 328.99-5.54 329.93-6.8 330.27-8.4L330.27-8.4 331.27-5.5 330.07-5.5Q329.72-3.85 328.74-2.48 327.75-1.1 326.09-0.29 324.43 0.53 321.93 0.53ZM334.13-33.13L334.13 0 330.07 0 330.25-5.9 330.18-7.2 330.18-17.4 330.2-18.25 330.1-25.18 330.1-33.13 334.13-33.13ZM366.53-18.38L362.88 0 356.28 0 349.68-31.95 353.93-31.95 358.57-8.08 359.45-3.48 359.9-3.48 360.75-8.08 365.43-31.13 371.55-31.13 376.23-8.08 377.07-3.48 377.53-3.48 378.43-8.08 383.07-31.95 387.28-31.95 380.7 0 374.15 0 370.45-18.38 368.7-27.7 368.3-27.7 366.53-18.38ZM410.73-15.8L410.73 0 406.7 0 406.88-5.93 406.73-6.55 406.73-14.33 406.75-15.75Q406.75-18.73 405.24-20.15 403.73-21.58 400.45-21.58L400.45-21.58Q397.82-21.58 395.64-20.83 393.45-20.08 391.75-19.07L391.75-19.07 392.13-22.53Q393.07-23.1 394.39-23.66 395.7-24.23 397.39-24.6 399.07-24.98 401.1-24.98L401.1-24.98Q403.73-24.98 405.56-24.34 407.4-23.7 408.54-22.5 409.68-21.3 410.2-19.6 410.73-17.9 410.73-15.8L410.73-15.8ZM398.3 0.53L398.3 0.53Q394.68 0.53 392.74-1.24 390.8-3 390.8-6.28L390.8-6.28 390.8-7Q390.8-10.38 392.89-12.04 394.98-13.7 399.53-14.35L399.53-14.35 407.25-15.45 407.48-12.5 400.03-11.43Q397.23-11.03 396.03-10.06 394.82-9.1 394.82-7.23L394.82-7.23 394.82-6.83Q394.82-4.9 396.01-3.88 397.2-2.85 399.57-2.85L399.57-2.85Q401.68-2.85 403.18-3.58 404.68-4.3 405.6-5.53 406.53-6.75 406.85-8.25L406.85-8.25 407.48-5.5 406.7-5.5Q406.35-3.9 405.39-2.53 404.43-1.15 402.7-0.31 400.98 0.53 398.3 0.53ZM424.55 0.55L424.55 0.55Q421.6 0.55 419.4-0.09 417.2-0.73 415.75-1.48L415.75-1.48 415.38-5.23Q417.2-4.28 419.39-3.58 421.57-2.88 424.35-2.88L424.35-2.88Q427.18-2.88 428.6-3.78 430.02-4.67 430.02-6.45L430.02-6.45 430.02-6.73Q430.02-7.88 429.49-8.63 428.95-9.38 427.55-9.95 426.15-10.53 423.57-11.1L423.57-11.1Q420.5-11.78 418.73-12.69 416.95-13.6 416.19-14.95 415.43-16.3 415.43-18.25L415.43-18.25 415.43-18.48Q415.43-21.68 417.65-23.33 419.88-24.98 424.35-24.98L424.35-24.98Q427.23-24.98 429.34-24.33 431.45-23.68 432.8-22.88L432.8-22.88 433.18-19.45Q431.55-20.4 429.45-21.03 427.35-21.65 424.73-21.65L424.73-21.65Q422.82-21.65 421.65-21.26 420.48-20.88 419.95-20.16 419.43-19.45 419.43-18.45L419.43-18.45 419.43-18.25Q419.43-17.15 419.95-16.39 420.48-15.63 421.84-15.06 423.2-14.5 425.63-13.98L425.63-13.98Q428.75-13.35 430.59-12.48 432.43-11.6 433.23-10.26 434.02-8.93 434.02-6.83L434.02-6.83 434.02-6.4Q434.02-2.95 431.63-1.2 429.23 0.55 424.55 0.55ZM447.85 0.5L447.85 0.5Q445.03 0.5 443.3-0.35 441.57-1.2 440.8-2.93 440.03-4.65 440.03-7.23L440.03-7.23 440.03-22.63 444.03-22.63 444.03-7.7Q444.03-5.3 445.13-4.16 446.23-3.03 448.82-3.03L448.82-3.03Q450.3-3.03 451.66-3.35 453.03-3.68 454.23-4.28L454.23-4.28 453.85-0.8Q452.68-0.2 451.1 0.15 449.53 0.5 447.85 0.5ZM453.98-24.05L453.6-20.8 436.03-20.8 436.03-24.05 453.98-24.05ZM444.1-31.03L443.93-23.65 440.05-23.65 440.03-30.5 444.1-31.03ZM469 0.55L469 0.55Q463.43 0.55 460.6-2.18 457.77-4.9 457.77-9.98L457.77-9.98 457.77-14.33Q457.77-19.48 460.4-22.26 463.02-25.05 468.07-25.05L468.07-25.05Q471.47-25.05 473.75-23.79 476.02-22.53 477.18-20.2 478.32-17.88 478.32-14.65L478.32-14.65 478.32-13.75Q478.32-12.95 478.26-12.15 478.2-11.35 478.1-10.58L478.1-10.58 474.38-10.58Q474.43-11.78 474.44-12.85 474.45-13.93 474.45-14.83L474.45-14.83Q474.45-17.05 473.74-18.59 473.02-20.13 471.61-20.94 470.2-21.75 468.07-21.75L468.07-21.75Q464.93-21.75 463.35-19.93 461.77-18.1 461.77-14.7L461.77-14.7 461.77-12.38 461.8-11.88 461.8-9.55Q461.8-8.03 462.25-6.8 462.7-5.58 463.66-4.69 464.63-3.8 466.11-3.34 467.6-2.88 469.65-2.88L469.65-2.88Q472.02-2.88 474.07-3.5 476.13-4.13 477.93-5.2L477.93-5.2 477.55-1.7Q475.93-0.68 473.77-0.06 471.63 0.55 469 0.55ZM477.25-13.63L477.25-10.58 459.9-10.58 459.9-13.63 477.25-13.63Z" opacity="1" transform="matrix(1,0,0,1,0,0)" fill="#000000" class="slogan-text-1" data-fill-palette-color="secondary" id="text-1"></path></svg></g></svg></g></svg></g></svg></g></svg></g></svg></g></svg></g><path d="M174.291 74.31L174.291 14.182 393.126 14.182 393.126 233.018 174.291 233.018 174.291 172.89 178.999 172.89 178.999 228.31 388.418 228.31 388.418 18.89 178.999 18.89 178.999 74.31Z" fill="#000000" stroke="transparent" data-fill-palette-color="tertiary"></path></svg></g><defs></defs></svg><rect width="395.52" height="247.2" fill="none" stroke="none" visibility="hidden"></rect></g></svg></g></svg>